<mxfile host="app.diagrams.net" agent="Mozilla/5.0 (X11; Linux x86_64) AppleWebKit/537.36 (KHTML, like Gecko) Chrome/134.0.0.0 Safari/537.36" version="26.2.14">
  <diagram name="Page-1" id="ECUC66QCHJgBqxlixaPf">
    <mxGraphModel dx="1813" dy="860" grid="1" gridSize="10" guides="1" tooltips="1" connect="1" arrows="1" fold="1" page="1" pageScale="1" pageWidth="850" pageHeight="1100" math="0" shadow="0">
      <root>
        <mxCell id="0" />
        <mxCell id="1" parent="0" />
        <mxCell id="4rLNPPCJRx69s4YT4tQt-36" style="edgeStyle=orthogonalEdgeStyle;rounded=0;orthogonalLoop=1;jettySize=auto;html=1;exitX=0.5;exitY=0;exitDx=0;exitDy=0;entryX=0.736;entryY=0.997;entryDx=0;entryDy=0;entryPerimeter=0;" edge="1" parent="1" source="4rLNPPCJRx69s4YT4tQt-34" target="4rLNPPCJRx69s4YT4tQt-23">
          <mxGeometry relative="1" as="geometry" />
        </mxCell>
        <mxCell id="4rLNPPCJRx69s4YT4tQt-34" value="" style="rounded=0;whiteSpace=wrap;html=1;" vertex="1" parent="1">
          <mxGeometry x="70" y="430" width="410" height="260" as="geometry" />
        </mxCell>
        <mxCell id="4rLNPPCJRx69s4YT4tQt-23" value="" style="rounded=0;whiteSpace=wrap;html=1;" vertex="1" parent="1">
          <mxGeometry x="-300" y="30" width="780" height="320" as="geometry" />
        </mxCell>
        <mxCell id="4rLNPPCJRx69s4YT4tQt-4" style="edgeStyle=orthogonalEdgeStyle;rounded=0;orthogonalLoop=1;jettySize=auto;html=1;exitX=0;exitY=0.5;exitDx=0;exitDy=0;entryX=1;entryY=0.5;entryDx=0;entryDy=0;" edge="1" parent="1" source="4rLNPPCJRx69s4YT4tQt-1" target="4rLNPPCJRx69s4YT4tQt-3">
          <mxGeometry relative="1" as="geometry" />
        </mxCell>
        <mxCell id="4rLNPPCJRx69s4YT4tQt-1" value="Модуль аутентификации" style="rounded=1;whiteSpace=wrap;html=1;" vertex="1" parent="1">
          <mxGeometry x="160" y="50" width="120" height="60" as="geometry" />
        </mxCell>
        <mxCell id="4rLNPPCJRx69s4YT4tQt-2" value="Подсистема хранения и обработки информации&lt;div&gt;(База данных)&lt;/div&gt;" style="shape=cylinder3;whiteSpace=wrap;html=1;boundedLbl=1;backgroundOutline=1;size=15;" vertex="1" parent="1">
          <mxGeometry x="-195" y="450" width="180" height="100" as="geometry" />
        </mxCell>
        <mxCell id="4rLNPPCJRx69s4YT4tQt-3" value="Модуль регистрации" style="rounded=1;whiteSpace=wrap;html=1;" vertex="1" parent="1">
          <mxGeometry x="10" y="50" width="120" height="60" as="geometry" />
        </mxCell>
        <mxCell id="4rLNPPCJRx69s4YT4tQt-5" value="Модуль управления пользовательскими данными" style="rounded=1;whiteSpace=wrap;html=1;" vertex="1" parent="1">
          <mxGeometry x="160" y="150" width="120" height="60" as="geometry" />
        </mxCell>
        <mxCell id="4rLNPPCJRx69s4YT4tQt-6" value="Модуль управления статьями" style="rounded=1;whiteSpace=wrap;html=1;" vertex="1" parent="1">
          <mxGeometry x="10" y="150" width="120" height="60" as="geometry" />
        </mxCell>
        <mxCell id="4rLNPPCJRx69s4YT4tQt-7" value="Модуль управления жалобами" style="rounded=1;whiteSpace=wrap;html=1;" vertex="1" parent="1">
          <mxGeometry x="10" y="230" width="120" height="60" as="geometry" />
        </mxCell>
        <mxCell id="4rLNPPCJRx69s4YT4tQt-14" style="edgeStyle=orthogonalEdgeStyle;rounded=0;orthogonalLoop=1;jettySize=auto;html=1;exitX=0.5;exitY=0;exitDx=0;exitDy=0;entryX=1;entryY=0.5;entryDx=0;entryDy=0;" edge="1" parent="1" source="4rLNPPCJRx69s4YT4tQt-8" target="4rLNPPCJRx69s4YT4tQt-1">
          <mxGeometry relative="1" as="geometry" />
        </mxCell>
        <mxCell id="4rLNPPCJRx69s4YT4tQt-15" style="edgeStyle=orthogonalEdgeStyle;rounded=0;orthogonalLoop=1;jettySize=auto;html=1;exitX=0.25;exitY=0;exitDx=0;exitDy=0;entryX=0.5;entryY=0;entryDx=0;entryDy=0;" edge="1" parent="1" source="4rLNPPCJRx69s4YT4tQt-8" target="4rLNPPCJRx69s4YT4tQt-11">
          <mxGeometry relative="1" as="geometry" />
        </mxCell>
        <mxCell id="4rLNPPCJRx69s4YT4tQt-16" style="edgeStyle=orthogonalEdgeStyle;rounded=0;orthogonalLoop=1;jettySize=auto;html=1;exitX=0.25;exitY=0;exitDx=0;exitDy=0;entryX=0.5;entryY=0;entryDx=0;entryDy=0;" edge="1" parent="1" source="4rLNPPCJRx69s4YT4tQt-8" target="4rLNPPCJRx69s4YT4tQt-9">
          <mxGeometry relative="1" as="geometry" />
        </mxCell>
        <mxCell id="4rLNPPCJRx69s4YT4tQt-17" style="edgeStyle=orthogonalEdgeStyle;rounded=0;orthogonalLoop=1;jettySize=auto;html=1;exitX=0.25;exitY=0;exitDx=0;exitDy=0;entryX=0.5;entryY=0;entryDx=0;entryDy=0;" edge="1" parent="1" source="4rLNPPCJRx69s4YT4tQt-8" target="4rLNPPCJRx69s4YT4tQt-6">
          <mxGeometry relative="1" as="geometry" />
        </mxCell>
        <mxCell id="4rLNPPCJRx69s4YT4tQt-18" style="edgeStyle=orthogonalEdgeStyle;rounded=0;orthogonalLoop=1;jettySize=auto;html=1;exitX=0.25;exitY=0;exitDx=0;exitDy=0;entryX=0.5;entryY=0;entryDx=0;entryDy=0;" edge="1" parent="1" source="4rLNPPCJRx69s4YT4tQt-8" target="4rLNPPCJRx69s4YT4tQt-5">
          <mxGeometry relative="1" as="geometry" />
        </mxCell>
        <mxCell id="4rLNPPCJRx69s4YT4tQt-19" style="edgeStyle=orthogonalEdgeStyle;rounded=0;orthogonalLoop=1;jettySize=auto;html=1;exitX=0.25;exitY=1;exitDx=0;exitDy=0;entryX=0.5;entryY=1;entryDx=0;entryDy=0;" edge="1" parent="1" source="4rLNPPCJRx69s4YT4tQt-8" target="4rLNPPCJRx69s4YT4tQt-12">
          <mxGeometry relative="1" as="geometry" />
        </mxCell>
        <mxCell id="4rLNPPCJRx69s4YT4tQt-20" style="edgeStyle=orthogonalEdgeStyle;rounded=0;orthogonalLoop=1;jettySize=auto;html=1;exitX=0.25;exitY=1;exitDx=0;exitDy=0;entryX=0.5;entryY=1;entryDx=0;entryDy=0;" edge="1" parent="1" source="4rLNPPCJRx69s4YT4tQt-8" target="4rLNPPCJRx69s4YT4tQt-13">
          <mxGeometry relative="1" as="geometry" />
        </mxCell>
        <mxCell id="4rLNPPCJRx69s4YT4tQt-21" style="edgeStyle=orthogonalEdgeStyle;rounded=0;orthogonalLoop=1;jettySize=auto;html=1;exitX=0.25;exitY=1;exitDx=0;exitDy=0;entryX=0.5;entryY=1;entryDx=0;entryDy=0;" edge="1" parent="1" source="4rLNPPCJRx69s4YT4tQt-8" target="4rLNPPCJRx69s4YT4tQt-7">
          <mxGeometry relative="1" as="geometry" />
        </mxCell>
        <mxCell id="4rLNPPCJRx69s4YT4tQt-22" style="edgeStyle=orthogonalEdgeStyle;rounded=0;orthogonalLoop=1;jettySize=auto;html=1;exitX=0.25;exitY=1;exitDx=0;exitDy=0;entryX=0.5;entryY=1;entryDx=0;entryDy=0;" edge="1" parent="1" source="4rLNPPCJRx69s4YT4tQt-8" target="4rLNPPCJRx69s4YT4tQt-10">
          <mxGeometry relative="1" as="geometry" />
        </mxCell>
        <mxCell id="4rLNPPCJRx69s4YT4tQt-8" value="Модуль навигации" style="rounded=1;whiteSpace=wrap;html=1;" vertex="1" parent="1">
          <mxGeometry x="340" y="190" width="120" height="60" as="geometry" />
        </mxCell>
        <mxCell id="4rLNPPCJRx69s4YT4tQt-9" value="Модуль осуществления перевода" style="rounded=1;whiteSpace=wrap;html=1;" vertex="1" parent="1">
          <mxGeometry x="-140" y="150" width="120" height="60" as="geometry" />
        </mxCell>
        <mxCell id="4rLNPPCJRx69s4YT4tQt-10" value="Модуль управления настройками" style="rounded=1;whiteSpace=wrap;html=1;" vertex="1" parent="1">
          <mxGeometry x="160" y="230" width="120" height="60" as="geometry" />
        </mxCell>
        <mxCell id="4rLNPPCJRx69s4YT4tQt-11" value="Модуль управления моделями перевода" style="rounded=1;whiteSpace=wrap;html=1;" vertex="1" parent="1">
          <mxGeometry x="-290" y="150" width="120" height="60" as="geometry" />
        </mxCell>
        <mxCell id="4rLNPPCJRx69s4YT4tQt-12" value="Модуль управления стилями перевода" style="rounded=1;whiteSpace=wrap;html=1;" vertex="1" parent="1">
          <mxGeometry x="-290" y="230" width="120" height="60" as="geometry" />
        </mxCell>
        <mxCell id="4rLNPPCJRx69s4YT4tQt-13" value="Модуль сбора статистики использования" style="rounded=1;whiteSpace=wrap;html=1;" vertex="1" parent="1">
          <mxGeometry x="-140" y="230" width="120" height="60" as="geometry" />
        </mxCell>
        <mxCell id="4rLNPPCJRx69s4YT4tQt-24" value="Подсистема управления&lt;div&gt;(Web-приложение)&lt;/div&gt;" style="text;html=1;align=center;verticalAlign=middle;whiteSpace=wrap;rounded=0;" vertex="1" parent="1">
          <mxGeometry x="-300" y="30" width="150" height="45" as="geometry" />
        </mxCell>
        <mxCell id="4rLNPPCJRx69s4YT4tQt-32" style="edgeStyle=orthogonalEdgeStyle;rounded=0;orthogonalLoop=1;jettySize=auto;html=1;exitX=0.25;exitY=1;exitDx=0;exitDy=0;entryX=0.75;entryY=0;entryDx=0;entryDy=0;" edge="1" parent="1" source="4rLNPPCJRx69s4YT4tQt-25" target="4rLNPPCJRx69s4YT4tQt-29">
          <mxGeometry relative="1" as="geometry" />
        </mxCell>
        <mxCell id="4rLNPPCJRx69s4YT4tQt-33" style="edgeStyle=orthogonalEdgeStyle;rounded=0;orthogonalLoop=1;jettySize=auto;html=1;exitX=0.25;exitY=0;exitDx=0;exitDy=0;entryX=0.75;entryY=1;entryDx=0;entryDy=0;" edge="1" parent="1" source="4rLNPPCJRx69s4YT4tQt-25" target="4rLNPPCJRx69s4YT4tQt-26">
          <mxGeometry relative="1" as="geometry" />
        </mxCell>
        <mxCell id="4rLNPPCJRx69s4YT4tQt-25" value="Модуль навигации" style="rounded=1;whiteSpace=wrap;html=1;glass=0;" vertex="1" parent="1">
          <mxGeometry x="260" y="530" width="120" height="60" as="geometry" />
        </mxCell>
        <mxCell id="4rLNPPCJRx69s4YT4tQt-26" value="Модуль управления статьями" style="rounded=1;whiteSpace=wrap;html=1;glass=0;" vertex="1" parent="1">
          <mxGeometry x="190" y="450" width="120" height="60" as="geometry" />
        </mxCell>
        <mxCell id="4rLNPPCJRx69s4YT4tQt-27" value="Модуль управления настройками" style="rounded=1;whiteSpace=wrap;html=1;glass=0;" vertex="1" parent="1">
          <mxGeometry x="345" y="450" width="120" height="60" as="geometry" />
        </mxCell>
        <mxCell id="4rLNPPCJRx69s4YT4tQt-28" value="Модуль управления аминистратора" style="rounded=1;whiteSpace=wrap;html=1;glass=0;" vertex="1" parent="1">
          <mxGeometry x="345" y="610" width="120" height="60" as="geometry" />
        </mxCell>
        <mxCell id="4rLNPPCJRx69s4YT4tQt-29" value="Модуль управления жалобами" style="rounded=1;whiteSpace=wrap;html=1;glass=0;" vertex="1" parent="1">
          <mxGeometry x="190" y="610" width="120" height="60" as="geometry" />
        </mxCell>
        <mxCell id="4rLNPPCJRx69s4YT4tQt-30" style="edgeStyle=orthogonalEdgeStyle;rounded=0;orthogonalLoop=1;jettySize=auto;html=1;exitX=0.75;exitY=0;exitDx=0;exitDy=0;entryX=0.149;entryY=1.008;entryDx=0;entryDy=0;entryPerimeter=0;" edge="1" parent="1" source="4rLNPPCJRx69s4YT4tQt-25" target="4rLNPPCJRx69s4YT4tQt-27">
          <mxGeometry relative="1" as="geometry" />
        </mxCell>
        <mxCell id="4rLNPPCJRx69s4YT4tQt-31" style="edgeStyle=orthogonalEdgeStyle;rounded=0;orthogonalLoop=1;jettySize=auto;html=1;exitX=0.75;exitY=1;exitDx=0;exitDy=0;entryX=0.144;entryY=0.033;entryDx=0;entryDy=0;entryPerimeter=0;" edge="1" parent="1" source="4rLNPPCJRx69s4YT4tQt-25" target="4rLNPPCJRx69s4YT4tQt-28">
          <mxGeometry relative="1" as="geometry" />
        </mxCell>
        <mxCell id="4rLNPPCJRx69s4YT4tQt-35" value="Подсистема отображения&lt;div&gt;(Клиентское web-приложение)&lt;/div&gt;" style="text;html=1;align=center;verticalAlign=middle;whiteSpace=wrap;rounded=0;" vertex="1" parent="1">
          <mxGeometry x="70" y="522.5" width="190" height="75" as="geometry" />
        </mxCell>
        <mxCell id="4rLNPPCJRx69s4YT4tQt-37" style="edgeStyle=orthogonalEdgeStyle;rounded=0;orthogonalLoop=1;jettySize=auto;html=1;exitX=0.25;exitY=1;exitDx=0;exitDy=0;entryX=0.5;entryY=0;entryDx=0;entryDy=0;entryPerimeter=0;" edge="1" parent="1" source="4rLNPPCJRx69s4YT4tQt-23" target="4rLNPPCJRx69s4YT4tQt-2">
          <mxGeometry relative="1" as="geometry" />
        </mxCell>
      </root>
    </mxGraphModel>
  </diagram>
</mxfile>
